<?xml version="1.0"?>
<svg xmlns="http://www.w3.org/2000/svg" xmlns:xlink="http://www.w3.org/1999/xlink" xmlns:svgjs="http://svgjs.com/svgjs" version="1.1" width="512" height="512" x="0" y="0" viewBox="0 0 512 512" style="enable-background:new 0 0 512 512" xml:space="preserve" class=""><g>
<path xmlns="http://www.w3.org/2000/svg" style="" d="M505.626,460.436c-8.488,14.717-23.715,23.505-40.711,23.505H47.085  c-16.996,0-32.213-8.788-40.711-23.505c-8.498-14.717-8.498-32.293,0-47.01L215.289,51.564  c8.498-14.717,23.715-23.505,40.711-23.505s32.213,8.788,40.711,23.505l208.915,361.862  C514.125,428.143,514.125,445.719,505.626,460.436z" fill="#d72c10" data-original="#ffda2d" class=""/>
<path xmlns="http://www.w3.org/2000/svg" style="" d="M505.626,460.436c-8.488,14.717-23.715,23.505-40.711,23.505H256V28.059  c16.996,0,32.213,8.788,40.711,23.505l208.915,361.862C514.125,428.143,514.125,445.719,505.626,460.436z" fill="#d50707" data-original="#fdbf00" class=""/>
<g xmlns="http://www.w3.org/2000/svg">
	<path style="" d="M298.121,179.586v109.436c0,23.235-18.896,42.131-42.121,42.131s-42.121-18.896-42.121-42.131   V179.586c0-23.225,18.896-42.121,42.121-42.121S298.121,156.361,298.121,179.586z" fill="#ffffff" data-original="#ffffff" class=""/>
	<path style="" d="M298.121,386.262c0,23.225-18.896,42.121-42.121,42.121s-42.121-18.896-42.121-42.121   c0-23.225,18.896-42.121,42.121-42.121S298.121,363.037,298.121,386.262z" fill="#ffffff" data-original="#ffffff" class=""/>
</g>
<g xmlns="http://www.w3.org/2000/svg">
	<path style="" d="M298.121,386.262c0,23.225-18.896,42.121-42.121,42.121v-84.242   C279.225,344.141,298.121,363.037,298.121,386.262z" fill="#dce6eb" data-original="#dce6eb"/>
	<path style="" d="M298.121,179.586v109.436c0,23.235-18.896,42.131-42.121,42.131V137.465   C279.225,137.465,298.121,156.361,298.121,179.586z" fill="#dce6eb" data-original="#dce6eb"/>
</g>
<g xmlns="http://www.w3.org/2000/svg">
</g>
<g xmlns="http://www.w3.org/2000/svg">
</g>
<g xmlns="http://www.w3.org/2000/svg">
</g>
<g xmlns="http://www.w3.org/2000/svg">
</g>
<g xmlns="http://www.w3.org/2000/svg">
</g>
<g xmlns="http://www.w3.org/2000/svg">
</g>
<g xmlns="http://www.w3.org/2000/svg">
</g>
<g xmlns="http://www.w3.org/2000/svg">
</g>
<g xmlns="http://www.w3.org/2000/svg">
</g>
<g xmlns="http://www.w3.org/2000/svg">
</g>
<g xmlns="http://www.w3.org/2000/svg">
</g>
<g xmlns="http://www.w3.org/2000/svg">
</g>
<g xmlns="http://www.w3.org/2000/svg">
</g>
<g xmlns="http://www.w3.org/2000/svg">
</g>
<g xmlns="http://www.w3.org/2000/svg">
</g>
</g></svg>
